<svg width="19" height="17" viewBox="0 0 19 17" fill="none" xmlns="http://www.w3.org/2000/svg">
<path d="M10.1383 0.7854C5.52017 0.7854 1.77656 4.23936 1.77656 8.50005C1.77656 9.65758 2.05337 10.7552 2.54842 11.7406L0.570523 15.317C0.460635 15.5157 0.480474 15.7608 0.620893 15.9393C0.729561 16.0774 0.894168 16.1547 1.06447 16.1547C1.11419 16.1547 1.16435 16.1481 1.21383 16.1345L5.54371 14.9461C6.86232 15.7477 8.44108 16.2147 10.1383 16.2147C14.7563 16.2147 18.5 12.7608 18.5 8.50005C18.4999 4.23936 14.7563 0.7854 10.1383 0.7854ZM10.1513 11.6538C10.1513 11.6538 6.72016 9.62197 6.72016 7.43987C6.72016 6.27933 7.66101 5.33856 8.82147 5.33856C9.32607 5.33856 9.78908 5.5165 10.1513 5.81295C10.5136 5.5165 10.9766 5.33856 11.4812 5.33856C12.6418 5.33856 13.5826 6.27933 13.5826 7.43987C13.5826 9.62193 10.1513 11.6538 10.1513 11.6538Z" fill="white"/>
</svg>
