<svg width="39" height="12" viewBox="0 0 39 12" fill="none" xmlns="http://www.w3.org/2000/svg">
<path d="M6.71383 1.34731C6.22927 1.01419 5.59696 0.847229 4.81691 0.847229H1.79695C1.55781 0.847229 1.4257 0.966825 1.4006 1.20579L0.173773 8.90673C0.161023 8.98236 0.179946 9.05154 0.230369 9.11442C0.280503 9.17742 0.343561 9.20875 0.41908 9.20875H1.85354C2.10514 9.20875 2.24343 9.08944 2.26881 8.85019L2.6085 6.77408C2.62091 6.67346 2.66516 6.59165 2.74068 6.52865C2.81614 6.46577 2.91052 6.42463 3.02377 6.40577C3.13702 6.38707 3.24381 6.37767 3.34466 6.37767C3.44521 6.37767 3.5647 6.38402 3.70333 6.39654C3.84162 6.40911 3.92977 6.41523 3.96756 6.41523C5.04964 6.41523 5.89898 6.11032 6.51566 5.49988C7.13204 4.88967 7.44058 4.04356 7.44058 2.96119C7.44058 2.21886 7.19816 1.68094 6.71383 1.34731ZM5.15671 3.65961C5.0936 4.10009 4.93021 4.38936 4.66598 4.52783C4.40169 4.66646 4.02421 4.7354 3.53354 4.7354L2.91064 4.75427L3.23158 2.73463C3.25662 2.59634 3.33837 2.52711 3.47689 2.52711H3.83562C4.3387 2.52711 4.70383 2.59963 4.93033 2.74409C5.15671 2.8889 5.23223 3.19415 5.15671 3.65961Z" fill="#003087"/>
<path d="M38.5832 0.847229H37.1865C37.0478 0.847229 36.9661 0.91646 36.9412 1.05492L35.7142 8.90679L35.6953 8.94452C35.6953 9.00775 35.7205 9.06723 35.7709 9.12388C35.821 9.18042 35.8842 9.20875 35.9596 9.20875H37.2055C37.4442 9.20875 37.5764 9.08944 37.6019 8.85019L38.8287 1.13021V1.11146C38.8286 0.935325 38.7466 0.847229 38.5832 0.847229Z" fill="#009CDE"/>
<path d="M21.7095 3.88594C21.7095 3.82317 21.6842 3.76328 21.6341 3.70674C21.5837 3.65015 21.5269 3.6217 21.4642 3.6217H20.0108C19.8722 3.6217 19.759 3.68493 19.6711 3.81042L17.6704 6.75503L16.8399 3.92378C16.7767 3.72261 16.6384 3.6217 16.4247 3.6217H15.0089C14.9458 3.6217 14.8892 3.65009 14.8392 3.70674C14.7887 3.76328 14.7637 3.82322 14.7637 3.88594C14.7637 3.91132 14.8864 4.28234 15.1317 4.99957C15.377 5.71697 15.6412 6.49086 15.9244 7.3214C16.2075 8.15176 16.3553 8.59242 16.3679 8.64244C15.336 10.0519 14.8203 10.8069 14.8203 10.9074C14.8203 11.0711 14.902 11.1528 15.0656 11.1528H16.519C16.6574 11.1528 16.7706 11.09 16.8588 10.9642L21.6719 4.01805C21.6969 3.99307 21.7095 3.94922 21.7095 3.88594Z" fill="#003087"/>
<path d="M35.2434 3.62174H33.8089C33.6326 3.62174 33.5259 3.82943 33.4882 4.2447C33.1607 3.74157 32.5633 3.48962 31.695 3.48962C30.789 3.48962 30.0181 3.82943 29.3828 4.50893C28.7473 5.18843 28.4297 5.98764 28.4297 6.90611C28.4297 7.64866 28.6467 8.24001 29.0807 8.68026C29.5149 9.12097 30.0968 9.34089 30.8269 9.34089C31.1916 9.34089 31.5628 9.26526 31.9403 9.11439C32.3179 8.96341 32.6133 8.76218 32.8276 8.51041C32.8276 8.52305 32.8148 8.57959 32.7898 8.6802C32.7644 8.78105 32.752 8.85668 32.752 8.9067C32.752 9.10828 32.8336 9.20866 32.9974 9.20866H34.2999C34.5386 9.20866 34.6772 9.08936 34.7149 8.85011L35.4889 3.92376C35.5013 3.84824 35.4824 3.77912 35.4322 3.71612C35.3817 3.6533 35.319 3.62174 35.2434 3.62174ZM32.7803 7.34018C32.4594 7.65478 32.0726 7.81199 31.6196 7.81199C31.2545 7.81199 30.959 7.71149 30.7324 7.51003C30.5059 7.30903 30.3926 7.03216 30.3926 6.67955C30.3926 6.21426 30.5499 5.82074 30.8645 5.49991C31.1788 5.17903 31.5692 5.01859 32.0348 5.01859C32.3868 5.01859 32.6794 5.12243 32.9124 5.32995C33.1451 5.53764 33.2617 5.82397 33.2617 6.18893C33.2616 6.64188 33.1011 7.02576 32.7803 7.34018Z" fill="#009CDE"/>
<path d="M13.8022 3.62174H12.3677C12.1913 3.62174 12.0845 3.82943 12.0467 4.2447C11.707 3.74157 11.1092 3.48962 10.2536 3.48962C9.34761 3.48962 8.57678 3.82943 7.94142 4.50893C7.30588 5.18843 6.98828 5.98764 6.98828 6.90611C6.98828 7.64866 7.20538 8.24001 7.63951 8.68026C8.07365 9.12097 8.65547 9.34089 9.3854 9.34089C9.73755 9.34089 10.1027 9.26526 10.4801 9.11439C10.8576 8.96341 11.1596 8.76218 11.3861 8.51041C11.3356 8.66139 11.3106 8.79357 11.3106 8.9067C11.3106 9.10828 11.3923 9.20866 11.556 9.20866H12.8583C13.0972 9.20866 13.2358 9.08936 13.2736 8.85011L14.0474 3.92376C14.0598 3.84824 14.041 3.77912 13.9908 3.71612C13.9404 3.6533 13.8776 3.62174 13.8022 3.62174ZM11.339 7.34953C11.018 7.65818 10.6246 7.81199 10.1593 7.81199C9.7942 7.81199 9.50165 7.71149 9.28161 7.51003C9.06128 7.30903 8.95126 7.03216 8.95126 6.67955C8.95126 6.21426 9.10847 5.82074 9.42319 5.49991C9.73755 5.17903 10.1277 5.01859 10.5934 5.01859C10.9456 5.01859 11.2381 5.12243 11.4711 5.32995C11.7038 5.53764 11.8203 5.82397 11.8203 6.18893C11.8203 6.65451 11.6599 7.04157 11.339 7.34953Z" fill="#003087"/>
<path d="M28.1552 1.34731C27.6707 1.01419 27.0386 0.847229 26.2584 0.847229H23.2573C23.0055 0.847229 22.867 0.966825 22.842 1.20579L21.6152 8.90673C21.6024 8.98236 21.6213 9.05154 21.6718 9.11442C21.7217 9.17742 21.785 9.20875 21.8605 9.20875H23.4081C23.5591 9.20875 23.6597 9.12706 23.7102 8.96344L24.05 6.77408C24.0624 6.67346 24.1065 6.59165 24.1821 6.52865C24.2576 6.46577 24.3519 6.42463 24.4652 6.40577C24.5784 6.38707 24.6852 6.37767 24.7861 6.37767C24.8867 6.37767 25.0062 6.38402 25.1446 6.39654C25.283 6.40911 25.3714 6.41523 25.4089 6.41523C26.4911 6.41523 27.3403 6.11032 27.957 5.49988C28.5736 4.88967 28.8819 4.04356 28.8819 2.96119C28.8819 2.21886 28.6396 1.68094 28.1552 1.34731ZM26.2206 4.45231C25.9437 4.64102 25.5285 4.73534 24.9749 4.73534L24.3709 4.75421L24.6918 2.73458C24.7167 2.59629 24.7985 2.52706 24.9371 2.52706H25.2767C25.5535 2.52706 25.7737 2.53963 25.9376 2.56473C26.1009 2.59006 26.2584 2.66852 26.4094 2.80063C26.5605 2.93275 26.6359 3.12475 26.6359 3.37634C26.6359 3.90492 26.4973 4.26342 26.2206 4.45231Z" fill="#009CDE"/>
</svg>
