<svg width="41" height="14" viewBox="0 0 41 14" fill="none" xmlns="http://www.w3.org/2000/svg">
<path d="M14.6914 12.9237L16.693 1.17792H19.8945L17.8914 12.9237H14.6914Z" fill="#0E4595"/>
<path d="M29.4582 1.43125C28.824 1.19329 27.8301 0.937927 26.5888 0.937927C23.4253 0.937927 21.1971 2.53099 21.178 4.81417C21.1602 6.50191 22.7689 7.44343 23.9833 8.00527C25.2295 8.58109 25.6484 8.94823 25.6424 9.46225C25.6344 10.2496 24.6472 10.6092 23.727 10.6092C22.4457 10.6092 21.7649 10.4312 20.7135 9.99277L20.3008 9.80605L19.8516 12.4354C20.5993 12.7634 21.982 13.0474 23.4178 13.0621C26.7832 13.0621 28.968 11.4872 28.9928 9.04909C29.0047 7.71289 28.1518 6.69613 26.3047 5.85781C25.1857 5.31445 24.5004 4.95187 24.5077 4.40167C24.5077 3.91345 25.0878 3.39139 26.3412 3.39139C27.388 3.37513 28.1465 3.60343 28.7374 3.84139L29.0242 3.97693L29.4582 1.43125Z" fill="#0E4595"/>
<path d="M37.6959 1.17786H35.2221C34.4557 1.17786 33.8822 1.38702 33.5457 2.1519L28.791 12.916H32.1529C32.1529 12.916 32.7025 11.4688 32.8268 11.1509C33.1942 11.1509 36.4601 11.156 36.927 11.156C37.0227 11.5672 37.3165 12.916 37.3165 12.916H40.2872L37.6959 1.17786ZM33.7709 8.76234C34.0357 8.0856 35.0465 5.4789 35.0465 5.4789C35.0277 5.51016 35.3094 4.79886 35.4709 4.35786L35.6874 5.37054C35.6874 5.37054 36.3004 8.17427 36.4285 8.76215H33.7709V8.76234Z" fill="#0E4595"/>
<path d="M0.751836 1.17792L0.710938 1.42225C1.97652 1.72861 3.10686 2.17203 4.09648 2.72362L6.93723 12.9049L10.3245 12.9011L15.3648 1.17792H11.9732L8.83895 9.18768L8.50508 7.55983C8.48944 7.50954 8.47243 7.45916 8.45504 7.40866L7.36543 2.16956C7.17169 1.4258 6.60964 1.20384 5.9143 1.17792H0.751836Z" fill="#0E4595"/>
</svg>
