<svg width="45" height="36" viewBox="0 0 45 36" fill="none" xmlns="http://www.w3.org/2000/svg">
<path d="M8.14912 35.3622V33.0446C8.14912 32.1558 7.6082 31.5766 6.72034 31.5766C6.25403 31.5766 5.75508 31.7315 5.40721 32.2295C5.13675 31.8042 4.75437 31.5766 4.17148 31.5766C3.95476 31.5673 3.7391 31.6118 3.54379 31.7062C3.34849 31.8006 3.17963 31.9419 3.05233 32.1176V31.6512H2.31836V35.3594H3.05233V33.2376C3.05233 32.5848 3.43844 32.2724 3.97936 32.2724C4.52028 32.2724 4.82898 32.6202 4.82898 33.2376V35.3622H5.56295V33.2376C5.56295 32.5848 5.94906 32.2724 6.48998 32.2724C7.0309 32.2724 7.3396 32.6202 7.3396 33.2376V35.3622H8.14912ZM20.2005 31.6923H18.8482V30.5731H18.1161V31.6923H17.3439V32.3451H18.1161V34.0873C18.1161 34.9369 18.4248 35.4396 19.3518 35.4396C19.703 35.4322 20.0471 35.3394 20.3544 35.1691L20.1221 34.5163C19.9138 34.6465 19.6721 34.7136 19.4264 34.7093C19.0403 34.7093 18.8472 34.4771 18.8472 34.091V32.3153H20.1995V31.6969L20.2005 31.6923ZM27.0758 31.5766C26.8759 31.5722 26.6782 31.6197 26.5021 31.7145C26.3261 31.8093 26.1776 31.9482 26.0713 32.1176V31.6512H25.3374V35.3594H26.0713V33.2768C26.0713 32.6585 26.38 32.2724 26.8827 32.2724C27.0524 32.2793 27.2207 32.3052 27.3845 32.3498L27.6167 31.654C27.4396 31.6094 27.2583 31.5834 27.0758 31.5766ZM16.6854 31.9627C16.2993 31.6923 15.7584 31.5766 15.1792 31.5766C14.2522 31.5766 13.673 32.0019 13.673 32.7359C13.673 33.3542 14.0983 33.7012 14.9088 33.8177L15.2949 33.856C15.7202 33.9334 15.9906 34.0882 15.9906 34.2812C15.9906 34.5517 15.6819 34.7476 15.1018 34.7476C14.6589 34.7567 14.2251 34.6211 13.8661 34.3614L13.48 34.9406C14.0209 35.3267 14.6775 35.4069 15.0655 35.4069C16.1473 35.4069 16.7265 34.9052 16.7265 34.2094C16.7265 33.5566 16.2601 33.2442 15.4516 33.1276L15.0655 33.0893C14.7176 33.0511 14.4126 32.9345 14.4126 32.7032C14.4126 32.4328 14.7213 32.2369 15.1466 32.2369C15.6129 32.2369 16.0736 32.43 16.3058 32.5456L16.6854 31.9627ZM27.8872 33.5081C27.8872 34.6272 28.6211 35.4396 29.8186 35.4396C30.3595 35.4396 30.7456 35.3239 31.1318 35.0143L30.7456 34.4351C30.4723 34.6565 30.1321 34.7791 29.7804 34.783C29.1275 34.783 28.6211 34.2812 28.6211 33.5473C28.6211 32.8133 29.121 32.3153 29.7804 32.3153C30.1321 32.3192 30.4723 32.4417 30.7456 32.6631L31.1318 32.084C30.7456 31.7753 30.3595 31.6587 29.8186 31.6587C28.6594 31.5813 27.8872 32.3927 27.8872 33.5128V33.5081ZM22.7111 31.5766C21.6293 31.5766 20.8953 32.3488 20.8953 33.5081C20.8953 34.6673 21.6675 35.4396 22.7876 35.4396C23.3325 35.4511 23.8646 35.2738 24.2938 34.9378L23.9077 34.3969C23.5973 34.6374 23.2183 34.7726 22.8258 34.783C22.3241 34.783 21.7831 34.4743 21.7067 33.8177H24.4495V33.509C24.4495 32.3498 23.7538 31.5776 22.7111 31.5776V31.5766ZM22.6729 32.2724C23.2138 32.2724 23.5999 32.6202 23.6381 33.1994H21.6302C21.7458 32.6585 22.0965 32.2724 22.6729 32.2724ZM12.6686 33.5081V31.654H11.9346V32.1204C11.6642 31.7725 11.2818 31.5794 10.7371 31.5794C9.69448 31.5794 8.92133 32.3908 8.92133 33.5109C8.92133 34.631 9.69354 35.4424 10.7371 35.4424C11.2781 35.4424 11.6642 35.2493 11.9346 34.9014V35.3678H12.6686V33.5081ZM9.69448 33.5081C9.69448 32.8124 10.1198 32.2724 10.8537 32.2724C11.5495 32.2724 11.9729 32.8133 11.9729 33.5081C11.9729 34.2421 11.5066 34.7438 10.8537 34.7438C10.1198 34.7821 9.69448 34.2029 9.69448 33.5081ZM38.2402 31.5766C38.0403 31.5722 37.8426 31.6197 37.6666 31.7145C37.4905 31.8093 37.3421 31.9482 37.2358 32.1176V31.6512H36.5018V35.3594H37.2348V33.2768C37.2348 32.6585 37.5435 32.2724 38.0462 32.2724C38.2159 32.2793 38.3842 32.3052 38.548 32.3498L38.7802 31.654C38.6031 31.6094 38.4218 31.5834 38.2393 31.5766H38.2402ZM35.3817 33.5081V31.654H34.6477V32.1204C34.3773 31.7725 33.9949 31.5794 33.4503 31.5794C32.4076 31.5794 31.6344 32.3908 31.6344 33.5109C31.6344 34.631 32.4067 35.4424 33.4503 35.4424C33.9912 35.4424 34.3773 35.2493 34.6477 34.9014V35.3678H35.3817V33.5081ZM32.4076 33.5081C32.4076 32.8124 32.8329 32.2724 33.5668 32.2724C34.2626 32.2724 34.686 32.8133 34.686 33.5081C34.686 34.2421 34.2197 34.7438 33.5668 34.7438C32.8329 34.7821 32.4076 34.2029 32.4076 33.5081ZM42.8371 33.5081V30.1861H42.1031V32.1176C41.8327 31.7697 41.4503 31.5766 40.9056 31.5766C39.863 31.5766 39.0898 32.388 39.0898 33.5081C39.0898 34.6282 39.862 35.4396 40.9056 35.4396C41.4466 35.4396 41.8327 35.2465 42.1031 34.8986V35.365H42.8371V33.5081ZM39.863 33.5081C39.863 32.8124 40.2882 32.2724 41.0222 32.2724C41.718 32.2724 42.1414 32.8133 42.1414 33.5081C42.1414 34.2421 41.6751 34.7438 41.0222 34.7438C40.2873 34.783 39.862 34.2038 39.862 33.5081H39.863Z" fill="black"/>
<path d="M29.2396 3.53357H15.8359V25.3961H29.2396V3.53357Z" fill="#FF5F00"/>
<path d="M17.1888 14.4649C17.1893 12.3617 17.6655 10.2858 18.5819 8.3928C19.4983 6.49975 20.8311 4.83855 22.4805 3.53359C20.4293 1.92082 17.9656 0.91774 15.3712 0.639015C12.7768 0.36029 10.1563 0.817169 7.80934 1.95742C5.46234 3.09768 3.48351 4.8753 2.09908 7.08707C0.714647 9.29885 -0.0195313 11.8555 -0.0195312 14.4649C-0.0195312 17.0742 0.714647 19.6309 2.09908 21.8427C3.48351 24.0544 5.46234 25.8321 7.80934 26.9723C10.1563 28.1126 12.7768 28.5694 15.3712 28.2907C17.9656 28.012 20.4293 27.0089 22.4805 25.3961C20.8311 24.0912 19.4983 22.43 18.5819 20.5369C17.6655 18.6439 17.1893 16.5681 17.1888 14.4649Z" fill="#EB001B"/>
<path d="M44.9997 14.4649C45.0015 17.0723 44.2695 19.6276 42.8874 21.8386C41.5052 24.0495 39.5287 25.8268 37.1839 26.9672C34.839 28.1076 32.2206 28.5651 29.628 28.2872C27.0354 28.0094 24.5734 27.0075 22.5234 25.3961C24.1732 24.0915 25.5063 22.4304 26.4228 20.5373C27.3392 18.6441 27.8153 16.5681 27.8153 14.4649C27.8153 12.3616 27.3392 10.2856 26.4228 8.39244C25.5063 6.49932 24.1732 4.8382 22.5234 3.53357C24.5734 1.9222 27.0354 0.920294 29.628 0.642452C32.2206 0.364611 34.839 0.82205 37.1839 1.96245C39.5287 3.10285 41.5052 4.88017 42.8874 7.09113C44.2695 9.30209 45.0015 11.8574 44.9997 14.4649Z" fill="#F79E1B"/>
</svg>
