<svg width="45" height="18" viewBox="0 0 45 18" fill="none" xmlns="http://www.w3.org/2000/svg">
<path d="M21.2836 8.79643V14.0329H19.6211V1.09819H24.0282C25.0913 1.07557 26.1186 1.47896 26.882 2.21787C27.6549 2.91342 28.0903 3.90869 28.0733 4.94731C28.0959 5.99347 27.6605 6.99628 26.882 7.69372C26.1111 8.42886 25.1591 8.79643 24.0282 8.79454L21.2836 8.79643ZM21.2836 2.691V7.2074H24.0696C24.6879 7.22624 25.2836 6.98308 25.7133 6.53823C26.5861 5.68999 26.6068 4.29322 25.7567 3.42048C25.7416 3.4054 25.7284 3.39032 25.7133 3.37713C25.2892 2.92285 24.6898 2.67403 24.0696 2.691H21.2836ZM31.9036 4.89453C33.1326 4.89453 34.1015 5.22252 34.8121 5.87849C35.5227 6.53446 35.8771 7.43548 35.8771 8.57777V14.0329H34.2881V12.8039H34.2165C33.5284 13.8161 32.6123 14.3213 31.47 14.3213C30.4955 14.3213 29.6793 14.0329 29.0233 13.4542C28.3862 12.917 28.0243 12.1215 28.0394 11.2865C28.0394 10.3704 28.3862 9.64278 29.078 9.1018C29.7698 8.56081 30.6934 8.28937 31.8508 8.28937C32.8366 8.28937 33.651 8.47033 34.2881 8.83036V8.44959C34.2919 7.88033 34.0393 7.34123 33.6019 6.97931C33.1628 6.58347 32.5897 6.3667 31.9978 6.37424C31.0704 6.37424 30.3353 6.76631 29.7943 7.54858L28.3316 6.62682C29.1346 5.47133 30.3259 4.89453 31.9036 4.89453ZM29.7528 11.3242C29.7509 11.754 29.9564 12.1573 30.3032 12.408C30.6708 12.6964 31.127 12.851 31.5945 12.8416C32.2957 12.8397 32.9686 12.5607 33.4643 12.065C34.0148 11.5466 34.29 10.9396 34.29 10.2403C33.7716 9.82751 33.0497 9.62016 32.1222 9.62016C31.4474 9.62016 30.8838 9.78227 30.4333 10.1084C29.979 10.4401 29.7528 10.8416 29.7528 11.3242ZM45.0004 5.18293L39.4529 17.9348H37.7376L39.796 13.4731L36.1467 5.18293H37.9525L40.5896 11.541H40.6254L43.1908 5.18293H45.0004Z" fill="#5F6368"/>
<path d="M14.5662 7.66544C14.5662 7.15838 14.5247 6.6532 14.438 6.15369H7.42969V9.01508H11.4428C11.2769 9.93872 10.7416 10.7549 9.95932 11.2733V13.1319H12.3551C13.7575 11.8407 14.5662 9.92741 14.5662 7.66544Z" fill="#4285F4"/>
<path d="M7.4299 14.9282C9.43551 14.9282 11.1244 14.2704 12.3553 13.1337L9.95953 11.2752C9.29225 11.7276 8.43459 11.9858 7.4299 11.9858C5.49214 11.9858 3.84656 10.6795 3.25845 8.91895H0.791016V10.8341C2.05206 13.3449 4.62128 14.9282 7.4299 14.9282Z" fill="#34A853"/>
<path d="M3.25912 8.91892C2.9481 7.99717 2.9481 6.99625 3.25912 6.0745V4.15936H0.791689C-0.263896 6.25922 -0.263896 8.7342 0.791689 10.8341L3.25912 8.91892Z" fill="#FBBC04"/>
<path d="M7.4299 3.00766C8.48925 2.99069 9.51279 3.39031 10.28 4.12168L12.4025 2.00108C11.0566 0.738146 9.27529 0.0444754 7.4299 0.0652101C4.62128 0.0652101 2.05206 1.65047 0.791016 4.15938L3.25845 6.07451C3.84656 4.31394 5.49214 3.00766 7.4299 3.00766Z" fill="#EA4335"/>
</svg>
