<svg width="14" height="14" viewBox="0 0 14 14" fill="none" xmlns="http://www.w3.org/2000/svg">
<path d="M8.3708 9.19847L8.06713 9.51813C8.06713 9.51813 7.3454 10.278 5.3754 8.20393C3.40541 6.12989 4.12713 5.37005 4.12713 5.37005L4.31835 5.16874C4.7894 4.67283 4.8338 3.87665 4.42283 3.2954L3.58217 2.10641C3.07352 1.387 2.09064 1.29197 1.50763 1.90576L0.461232 3.00743C0.172152 3.31177 -0.0215679 3.7063 0.00192547 4.14396C0.0620255 5.26364 0.540472 7.67267 3.21024 10.4835C6.0414 13.4641 8.69787 13.5826 9.7842 13.4754C10.1278 13.4415 10.4266 13.2562 10.6674 13.0027L11.6145 12.0056C12.2537 11.3326 12.0735 10.1788 11.2555 9.708L9.98186 8.97487C9.4448 8.66573 8.79053 8.75653 8.3708 9.19847Z" fill="#0E6D35"/>
<path d="M6.84031 0.75322C6.88444 0.480627 7.14211 0.295714 7.41471 0.33984C7.43158 0.343074 7.48591 0.35322 7.51431 0.359554C7.57124 0.372227 7.65058 0.391727 7.74951 0.420547C7.94738 0.478174 8.22378 0.573114 8.55551 0.725201C9.21971 1.02971 10.1036 1.56237 11.0208 2.47957C11.938 3.39677 12.4706 4.28065 12.7751 4.94483C12.9272 5.27658 13.0222 5.55298 13.0798 5.75083C13.1086 5.84977 13.1281 5.92913 13.1408 5.98601C13.1471 6.01445 13.1518 6.03729 13.155 6.05417L13.1588 6.07497C13.2029 6.34753 13.0197 6.61593 12.7471 6.66007C12.4753 6.70407 12.2192 6.52 12.174 6.24873C12.1726 6.2414 12.1688 6.22187 12.1647 6.2034C12.1564 6.16647 12.1422 6.10792 12.1197 6.03048C12.0746 5.87559 11.9962 5.64537 11.8661 5.36159C11.6062 4.79471 11.1389 4.01193 10.3136 3.18668C9.48844 2.36144 8.70564 1.89411 8.13878 1.63423C7.85498 1.50412 7.62478 1.42577 7.46984 1.38065C7.39244 1.35809 7.29511 1.33575 7.25818 1.32753C6.98684 1.28231 6.79631 1.02503 6.84031 0.75322Z" fill="#0E6D35"/>
<path fill-rule="evenodd" clip-rule="evenodd" d="M6.99006 3.05285C7.06593 2.78733 7.34266 2.63359 7.60819 2.70945L7.47086 3.19021C7.60819 2.70945 7.60819 2.70945 7.60819 2.70945L7.60919 2.70973L7.61019 2.71002L7.61239 2.71067L7.61759 2.71221L7.63079 2.71632C7.64079 2.71954 7.65339 2.72372 7.66833 2.72904C7.69826 2.73966 7.73786 2.75477 7.78639 2.77557C7.88353 2.8172 8.01619 2.88148 8.17926 2.97795C8.50553 3.17107 8.95099 3.49186 9.47433 4.01517C9.99766 4.53849 10.3184 4.98394 10.5115 5.31026C10.608 5.47326 10.6723 5.60597 10.7139 5.70309C10.7347 5.75163 10.7499 5.7912 10.7605 5.82114C10.7658 5.83611 10.7699 5.84866 10.7732 5.85871L10.7773 5.87191L10.7788 5.87707L10.7795 5.8793L10.7797 5.88032C10.7797 5.88032 10.7801 5.88128 10.2993 6.01864L10.7801 5.88128C10.8559 6.1468 10.7021 6.42352 10.4367 6.49939C10.1734 6.57459 9.89906 6.42412 9.82046 6.16274L9.81799 6.15555C9.81446 6.14553 9.80713 6.12582 9.79479 6.09702C9.77013 6.03946 9.72539 5.9453 9.65099 5.81957C9.50233 5.56841 9.23386 5.18892 8.76719 4.72228C8.30059 4.25564 7.92106 3.98718 7.66993 3.83853C7.54419 3.76412 7.45006 3.71938 7.39246 3.69472C7.36366 3.68238 7.34393 3.67501 7.33393 3.67146L7.32673 3.669C7.06539 3.59042 6.91486 3.31612 6.99006 3.05285Z" fill="#0E6D35"/>
</svg>
