<svg width="58" height="43" viewBox="0 0 58 43" fill="none" xmlns="http://www.w3.org/2000/svg">
<path d="M11.5783 0.712181C12.3586 1.49402 12.3573 2.76034 11.5755 3.54061C7.09917 8.008 4.33325 14.1791 4.33325 21C4.33325 27.9008 7.16427 34.1365 11.7333 38.6157C12.5221 39.3891 12.5347 40.6552 11.7614 41.444C10.9882 42.2328 9.72194 42.2453 8.93317 41.472C3.62829 36.2717 0.333252 29.0189 0.333252 21C0.333252 13.0742 3.55248 5.89642 8.74987 0.709381C9.53168 -0.0708857 10.798 -0.0696323 11.5783 0.712181Z" fill="#0E6D35"/>
<path d="M46.6436 0.905302C47.4324 0.132049 48.6985 0.144636 49.4719 0.933409C54.5388 6.1021 57.6665 13.1879 57.6665 21.0001C57.6665 28.9054 54.4641 36.0665 49.2905 41.2502C48.5103 42.0321 47.2439 42.0334 46.4623 41.2531C45.6804 40.4729 45.6791 39.2065 46.4593 38.4246C50.9151 33.9601 53.6665 27.8033 53.6665 21.0001C53.6665 14.2767 50.9791 8.18488 46.6156 3.7336C45.8423 2.94482 45.8548 1.67856 46.6436 0.905302Z" fill="#0E6D35"/>
<path d="M19.1579 8.96694C19.9127 9.77345 19.8707 11.0391 19.0642 11.7938C16.5338 14.1618 15 17.4008 15 20.9528C15 24.5459 16.5698 27.8195 19.1535 30.1944C19.9667 30.9419 20.0199 32.2072 19.2724 33.0203C18.5249 33.8336 17.2597 33.8867 16.4465 33.1392C13.1058 30.0685 11 25.7531 11 20.9528C11 16.208 13.0573 11.9368 16.3311 8.8732C17.1376 8.11846 18.4032 8.16043 19.1579 8.96694Z" fill="#0E6D35"/>
<path d="M38.9809 9.06825C39.7444 8.27003 41.0103 8.2419 41.8087 9.00539C45.0012 12.059 46.9999 16.2762 46.9999 20.9527C46.9999 25.6847 44.9532 29.9463 41.6943 33.0082C40.8895 33.7645 39.6236 33.725 38.8673 32.9199C38.1111 32.1151 38.1505 30.8493 38.9553 30.093C41.474 27.7266 42.9999 24.4954 42.9999 20.9527C42.9999 17.4511 41.5095 14.2546 39.0436 11.896C38.2455 11.1325 38.2175 9.86646 38.9809 9.06825Z" fill="#E4B541"/>
<path d="M28.9998 26.3337C31.9454 26.3337 34.3332 23.9457 34.3332 21.0003C34.3332 18.0547 31.9454 15.667 28.9998 15.667C26.0542 15.667 23.6665 18.0547 23.6665 21.0003C23.6665 23.9457 26.0542 26.3337 28.9998 26.3337Z" fill="#E4B541"/>
</svg>
