<svg width="40" height="56" viewBox="0 0 40 56" fill="none" xmlns="http://www.w3.org/2000/svg">
<path d="M37.9216 20.117C37.9219 17.7376 37.4485 15.3819 36.5287 13.1874C35.6089 10.993 34.2616 9.00383 32.5648 7.33571C30.868 5.66761 28.8561 4.3541 26.6463 3.47182C24.4368 2.58952 22.0734 2.15619 19.6944 2.19697C15.1274 2.33278 10.7789 4.18358 7.51499 7.38102C4.25112 10.5785 2.31123 14.888 2.08157 19.4513C1.97242 22.4964 2.6415 25.519 4.02564 28.2337C5.40978 30.948 7.46326 33.2648 9.99195 34.9649C10.7046 35.4283 11.2907 36.0616 11.6974 36.8079C12.1041 37.5544 12.3187 38.3902 12.3216 39.2401V43.1569H27.6816V39.2401C27.6816 38.3925 27.8923 37.5582 28.2945 36.812C28.6966 36.0657 29.2778 35.4311 29.9856 34.9649C32.4232 33.3293 34.4221 31.1198 35.8058 28.5309C37.1897 25.9419 37.9162 23.0525 37.9216 20.117Z" stroke="#0E6D35" stroke-width="3.84" stroke-linecap="round" stroke-linejoin="round"/>
<path d="M27.6801 50.8625C25.4644 52.5242 22.7697 53.4225 20.0001 53.4225C17.2304 53.4225 14.5357 52.5242 12.3201 50.8625" stroke="#0E6D35" stroke-width="3.84" stroke-linecap="round" stroke-linejoin="round"/>
<path d="M19.9748 11.4385L15.7252 18.5552C15.5327 18.8672 15.4274 19.2251 15.4205 19.5916C15.4136 19.9581 15.505 20.3197 15.6855 20.6388C15.866 20.9579 16.1286 21.2226 16.4463 21.4055C16.764 21.5884 17.125 21.6827 17.4916 21.6785H22.6116C22.9741 21.6771 23.3307 21.7721 23.6448 21.9537C23.9586 22.1352 24.2187 22.3969 24.3985 22.7119C24.5782 23.0271 24.6708 23.3842 24.6673 23.7467C24.6637 24.1094 24.5638 24.4645 24.378 24.7761L20.0772 31.9185" stroke="#E4B541" stroke-width="3.84" stroke-linecap="round" stroke-linejoin="round"/>
</svg>
