<svg width="64" height="58" viewBox="0 0 64 58" fill="none" xmlns="http://www.w3.org/2000/svg">
<path d="M27.198 28.9999C34.5618 28.9999 40.5314 23.0304 40.5314 15.6666C40.5314 8.3028 34.5618 2.33325 27.198 2.33325C19.8343 2.33325 13.8647 8.3028 13.8647 15.6666C13.8647 23.0304 19.8343 28.9999 27.198 28.9999Z" stroke="#0E6D35" stroke-width="4" stroke-linecap="round" stroke-linejoin="round"/>
<path d="M2.66675 55.6667C4.18776 50.4219 7.32795 45.7923 11.6384 42.4397C15.9489 39.0872 21.209 37.1832 26.6667 37C37.6534 37 47.0134 44.76 50.6667 55.6667" stroke="#0E6D35" stroke-width="4" stroke-linecap="round" stroke-linejoin="round"/>
<path d="M47.5213 8.84009C49.5525 9.8815 51.1963 11.5471 52.2107 13.5921C53.2251 15.637 53.5568 17.9533 53.1568 20.2008C52.7568 22.4482 51.6464 24.5079 49.9888 26.0775C48.3315 27.6469 46.2139 28.6431 43.948 28.9199" stroke="#E4B541" stroke-width="4" stroke-linecap="round" stroke-linejoin="round"/>
<path d="M46.1875 35.8535C49.7448 36.7599 53.0078 38.5687 55.6611 41.1055C58.3147 43.6421 60.2686 46.8205 61.3342 50.3333" stroke="#E4B541" stroke-width="4" stroke-linecap="round" stroke-linejoin="round"/>
</svg>
