<svg width="54" height="54" viewBox="0 0 54 54" fill="none" xmlns="http://www.w3.org/2000/svg">
<path d="M9.84797 35.6666L1.30051 44.2141C0.333252 40.3101 0.333252 34.8946 0.333252 26.9999C0.333252 14.4291 0.333252 8.14373 4.23851 4.23851C8.14373 0.333252 14.4291 0.333252 26.9999 0.333252C39.5706 0.333252 45.8562 0.333252 49.7613 4.23851C53.6666 8.14373 53.6666 14.4291 53.6666 26.9999C53.6666 39.5706 53.6666 45.8562 49.7613 49.7613C45.8562 53.6666 39.5706 53.6666 26.9999 53.6666C19.1054 53.6666 13.6898 53.6666 9.78579 52.6994L18.3333 44.1519V45.6666C18.3333 48.9802 21.0195 51.6666 24.3333 51.6666C27.6469 51.6666 30.3333 48.9802 30.3333 45.6666V29.6666C30.3333 26.353 27.6469 23.6666 24.3333 23.6666H8.33325C5.01955 23.6666 2.33325 26.353 2.33325 29.6666C2.33325 32.9802 5.01955 35.6666 8.33325 35.6666H9.84797Z" fill="#0E6D35"/>
<path d="M8.33333 27.6665C7.22877 27.6665 6.33333 28.562 6.33333 29.6665C6.33333 30.771 7.22877 31.6665 8.33333 31.6665H19.5049L1.58578 49.5857C0.80474 50.3668 0.80474 51.6329 1.58578 52.414C2.36682 53.195 3.63317 53.195 4.41421 52.414L22.3333 34.495V45.6665C22.3333 46.771 23.2288 47.6665 24.3333 47.6665C25.4379 47.6665 26.3333 46.771 26.3333 45.6665V29.6665C26.3333 28.562 25.4379 27.6665 24.3333 27.6665H8.33333Z" fill="#E4B541"/>
</svg>
